<svg width="193" height="100" viewBox="0 0 193 100" fill="none" xmlns="http://www.w3.org/2000/svg">
<g clip-path="url(#clip0_1437_448)">
<mask id="mask0_1437_448" style="mask-type:luminance" maskUnits="userSpaceOnUse" x="0" y="0" width="193" height="100">
<path d="M192.5 0.5H0.5V99.5H192.5V0.5Z" fill="white"/>
</mask>
<g mask="url(#mask0_1437_448)">
<path d="M87 76.5C105.502 76.5 120.5 61.5015 120.5 43C120.5 24.4985 105.502 9.5 87 9.5C68.4985 9.5 53.5 24.4985 53.5 43C53.5 61.5015 68.4985 76.5 87 76.5Z" fill="#F3F7FF" stroke="#1F64E7" stroke-width="2.5"/>
<path fill-rule="evenodd" clip-rule="evenodd" d="M81.6321 68.9939C83.3908 69.3185 85.1801 69.4872 87 69.5C101.636 69.5 113.5 57.6355 113.5 43C113.5 28.3645 101.636 16.5 87 16.5C83.2404 16.5 79.6636 17.2829 76.4238 18.6946C70.7938 21.1479 66.1816 25.4999 63.396 30.9419C61.5445 34.5589 60.5 38.6575 60.5 43C60.5 46.94 61.3599 50.6792 62.9021 54.0401C64.0032 56.4396 65.4521 58.6463 67.1843 60.5956" fill="white"/>
<path d="M81.6321 68.9939C83.3908 69.3185 85.1801 69.4872 87 69.5C101.636 69.5 113.5 57.6355 113.5 43C113.5 28.3645 101.636 16.5 87 16.5C83.2404 16.5 79.6636 17.2829 76.4238 18.6946C70.7938 21.1479 66.1816 25.4999 63.396 30.9419C61.5445 34.5589 60.5 38.6575 60.5 43C60.5 46.94 61.3599 50.6792 62.9021 54.0401C64.0032 56.4396 65.4521 58.6463 67.1843 60.5956" stroke="#1F64E7" stroke-width="2.5" stroke-linecap="round"/>
<path d="M70.2979 63.5752C72.446 65.3212 74.8728 66.7375 77.5013 67.7471" stroke="#1F64E7" stroke-width="2.5" stroke-linecap="round"/>
<path d="M114.5 69.5L120.5 75.5" stroke="#1F64E7" stroke-width="2.5"/>
<path fill-rule="evenodd" clip-rule="evenodd" d="M119.53 74.5299C117.637 76.4226 117.637 79.4913 119.53 81.384L130.615 92.4693C132.508 94.362 135.577 94.362 137.469 92.4693C139.362 90.5766 139.362 87.5079 137.469 85.6152L126.384 74.5299C124.491 72.6372 121.423 72.6372 119.53 74.5299Z" fill="#E8F0FE" stroke="#1F64E7" stroke-width="2.5"/>
<path d="M124.5 76.5L135.5 87.5" stroke="white" stroke-width="2.5" stroke-linecap="round"/>
<path fill-rule="evenodd" clip-rule="evenodd" d="M80.5005 31.5005C80.5005 43.0985 89.9025 52.5005 101.501 52.5005C103.779 52.5005 105.972 52.1377 108.027 51.4667C104.674 59.7876 96.523 65.6612 87.0005 65.6612C74.4854 65.6612 64.3398 55.5157 64.3398 43.0005C64.3398 31.6601 72.6702 22.2653 83.5455 20.6016C81.6135 23.7798 80.5005 27.5102 80.5005 31.5005Z" fill="#E8F0FE"/>
<path d="M87.5 24.5C86.2266 24.5 84.9825 24.6253 83.7793 24.8642M80.1447 25.9761C73.3039 28.8508 68.5 35.6144 68.5 43.5" stroke="#75A4FE" stroke-width="2.5" stroke-linecap="round"/>
<path d="M140.676 43.2773H132.5M147 35.5H129.824M154 35.5H151.779" stroke="#75A4FE" stroke-width="2.5" stroke-linecap="round" stroke-linejoin="round"/>
<path d="M50.6763 65.2773H42.5005M46.0005 56.5H28.8247M23.0005 56.5H18.7793" stroke="#75A4FE" stroke-width="2.5" stroke-linecap="round" stroke-linejoin="round"/>
</g>
</g>
<defs>
<clipPath id="clip0_1437_448">
<rect width="192" height="99" fill="white" transform="translate(0.5 0.5)"/>
</clipPath>
</defs>
</svg>
