<svg width="229" height="142" viewBox="0 0 229 142" fill="none" xmlns="http://www.w3.org/2000/svg">
<g clip-path="url(#clip0_1437_465)">
<mask id="mask0_1437_465" style="mask-type:luminance" maskUnits="userSpaceOnUse" x="0" y="0" width="229" height="142">
<path d="M228.5 0.5H0.5V141.5H228.5V0.5Z" fill="white"/>
</mask>
<g mask="url(#mask0_1437_465)">
<path d="M162 12.5V18.5" stroke="#75A4FE" stroke-width="2.5" stroke-linecap="round" stroke-linejoin="round"/>
<path d="M162 26.5V32.5" stroke="#75A4FE" stroke-width="2.5" stroke-linecap="round" stroke-linejoin="round"/>
<path d="M152 22.5H158" stroke="#75A4FE" stroke-width="2.5" stroke-linecap="round" stroke-linejoin="round"/>
<path d="M166 22.5H172" stroke="#75A4FE" stroke-width="2.5" stroke-linecap="round" stroke-linejoin="round"/>
<path d="M79 115.5V119.5" stroke="#75A4FE" stroke-width="2.5" stroke-linecap="round" stroke-linejoin="round"/>
<path d="M79 127.5V131.5" stroke="#75A4FE" stroke-width="2.5" stroke-linecap="round" stroke-linejoin="round"/>
<path d="M71 123.5H75" stroke="#75A4FE" stroke-width="2.5" stroke-linecap="round" stroke-linejoin="round"/>
<path d="M83 123.5H87" stroke="#75A4FE" stroke-width="2.5" stroke-linecap="round" stroke-linejoin="round"/>
<path fill-rule="evenodd" clip-rule="evenodd" d="M150.211 98.6263C151.602 96.9232 152.852 95.1421 153.961 93.2987C156.401 89.2443 158.16 84.8884 159.234 80.3975C160.321 75.8555 160.709 71.1755 160.394 66.5296C160.12 62.4756 159.311 58.4475 157.965 54.5598C156.631 50.7028 154.768 46.984 152.375 43.515C150.95 41.4479 149.336 39.4696 147.534 37.6036C144.888 34.864 141.986 32.5219 138.902 30.5787C135.589 28.4908 132.066 26.8634 128.426 25.6984C123.868 24.2393 119.128 23.5054 114.386 23.5C110.697 23.4959 107.007 23.9328 103.402 24.8125C99.3447 25.8028 95.3953 27.3543 91.6766 29.4692C88.4076 31.3284 85.317 33.623 82.488 36.3547C78.9328 39.7875 76.053 43.6572 73.8512 47.7985C71.6956 51.8531 70.1899 56.1682 69.3366 60.5887C68.4574 65.1429 68.2706 69.8091 68.7789 74.4178C69.4378 80.3911 71.2643 86.2677 74.2644 91.6785C76.184 95.1407 78.5842 98.4123 81.4663 101.396C86.0416 106.134 91.3833 109.683 97.1045 112.035C104.062 114.897 111.581 115.989 118.965 115.3C125.162 114.721 131.265 112.887 136.861 109.79" fill="white"/>
<path d="M150.211 98.6263C151.602 96.9232 152.852 95.1421 153.961 93.2987C156.401 89.2443 158.16 84.8884 159.234 80.3975C160.321 75.8555 160.709 71.1755 160.394 66.5296C160.12 62.4756 159.311 58.4475 157.965 54.5598C156.631 50.7028 154.768 46.984 152.375 43.515C150.95 41.4479 149.336 39.4696 147.534 37.6036C144.888 34.864 141.986 32.5219 138.902 30.5787C135.589 28.4908 132.066 26.8634 128.426 25.6984C123.868 24.2393 119.128 23.5054 114.386 23.5C110.697 23.4959 107.007 23.9328 103.402 24.8125C99.3447 25.8028 95.3953 27.3543 91.6766 29.4692C88.4076 31.3284 85.317 33.623 82.488 36.3547C78.9328 39.7875 76.053 43.6572 73.8512 47.7985C71.6956 51.8531 70.1899 56.1682 69.3366 60.5887C68.4574 65.1429 68.2706 69.8091 68.7789 74.4178C69.4378 80.3911 71.2643 86.2677 74.2644 91.6785C76.184 95.1407 78.5842 98.4123 81.4663 101.396C86.0416 106.134 91.3833 109.683 97.1045 112.035C104.062 114.897 111.581 115.989 118.965 115.3C125.162 114.721 131.265 112.887 136.861 109.79" stroke="#1F64E7" stroke-width="2.5" stroke-linecap="round" stroke-linejoin="round"/>
<path fill-rule="evenodd" clip-rule="evenodd" d="M140.201 107.878C143.107 106.008 145.691 103.674 147.372 101.791L140.201 107.878Z" fill="white"/>
<path d="M140.201 107.878C143.107 106.008 145.691 103.674 147.372 101.791" stroke="#1F64E7" stroke-width="2.5" stroke-linecap="round"/>
<path d="M156.5 72.117C156.214 72.1221 155.927 72.1246 155.64 72.1246C130.386 72.1246 109.709 52.4362 107.976 27.5C87.8752 30.6706 72.5 48.1526 72.5 69.2434C72.5 92.5811 91.3255 111.5 114.548 111.5C136.809 111.5 155.03 94.1145 156.5 72.117Z" fill="#E8F0FE"/>
<path fill-rule="evenodd" clip-rule="evenodd" d="M98.5233 67.8729C97.3001 66.7433 95.4025 66.83 94.285 68.0666C93.1676 69.3032 93.2534 71.2214 94.4767 72.3511L108.596 85.389C110.308 86.9704 112.965 86.849 114.529 85.1178C114.595 85.0442 114.595 85.0442 114.658 84.9687L134.807 60.4716C135.866 59.1837 135.692 57.2716 134.418 56.2008C133.144 55.13 131.252 55.306 130.193 56.5939L111.25 79.625L98.5233 67.8729Z" fill="white" stroke="#1F64E7" stroke-width="2.5" stroke-linecap="round"/>
<path fill-rule="evenodd" clip-rule="evenodd" d="M100.324 31.9131C98.3736 32.6447 96.4687 33.5338 94.6283 34.5806C91.7685 36.2072 89.0647 38.2149 86.5898 40.6049C85.5753 41.5846 84.6236 42.605 83.7349 43.661M80.985 47.3378C80.2784 48.4057 79.628 49.5004 79.0341 50.6176C78.5955 51.4428 78.1876 52.2803 77.8105 53.1285" fill="white"/>
<path d="M100.763 33.0832C101.409 32.8408 101.737 32.1202 101.494 31.4738C101.252 30.8275 100.531 30.5001 99.8848 30.7426L100.763 33.0832ZM82.7786 42.856C82.3341 43.3842 82.402 44.1727 82.9302 44.6172C83.4584 45.0617 84.2469 44.9939 84.6914 44.4657L82.7786 42.856ZM82.0275 48.0275C82.4085 47.4517 82.2507 46.6762 81.6749 46.2952C81.0992 45.9142 80.3237 46.0721 79.9427 46.6478L82.0275 48.0275ZM76.6684 52.6204C76.3879 53.2513 76.6719 53.99 77.3027 54.2705C77.9335 54.5509 78.6723 54.2669 78.9528 53.6361L76.6684 52.6204ZM99.8848 30.7426C97.8735 31.4971 95.9086 32.4141 94.0104 33.4938L95.2464 35.6669C97.0289 34.653 98.874 33.7919 100.763 33.0832L99.8848 30.7426ZM94.0104 33.4938C91.0604 35.1718 88.2724 37.2422 85.7216 39.7055L87.4582 41.5039C89.8573 39.1872 92.4768 37.2423 95.2464 35.6669L94.0104 33.4938ZM85.7216 39.7055C84.676 40.7152 83.695 41.7671 82.7786 42.856L84.6914 44.4657C85.5525 43.4425 86.4747 42.4536 87.4582 41.5039L85.7216 39.7055ZM79.9427 46.6478C79.2138 47.7492 78.5431 48.8783 77.9305 50.0307L80.138 51.2042C80.7132 50.122 81.3431 49.0618 82.0275 48.0275L79.9427 46.6478ZM77.9305 50.0307C77.478 50.8818 77.0573 51.7457 76.6684 52.6204L78.9528 53.6361C79.318 52.8146 79.7131 52.0034 80.138 51.2042L77.9305 50.0307Z" fill="#75A4FE"/>
</g>
</g>
<defs>
<clipPath id="clip0_1437_465">
<rect width="228" height="141" fill="white" transform="translate(0.5 0.5)"/>
</clipPath>
</defs>
</svg>
