<svg width="235" height="123" viewBox="0 0 235 123" fill="none" xmlns="http://www.w3.org/2000/svg">
<g clip-path="url(#clip0_1437_412)">
<mask id="mask0_1437_412" style="mask-type:luminance" maskUnits="userSpaceOnUse" x="0" y="0" width="235" height="123">
<path d="M235 0H0V123H235V0Z" fill="white"/>
</mask>
<g mask="url(#mask0_1437_412)">
<path fill-rule="evenodd" clip-rule="evenodd" d="M85 107C72.8497 107 63 97.3741 63 85.5C63 73.6259 72.8497 64 85 64C85.5167 64 86.0292 64.0174 86.537 64.0517C86.1842 62.0878 86 60.0654 86 58C86 39.2223 101.222 24 120 24C134.991 24 147.716 33.702 152.239 47.1695C153.31 47.0575 154.398 47 155.5 47C172.345 47 186 60.4315 186 77C186 92.7406 173.675 105.727 158 106.978V107H101.508H85Z" fill="white"/>
<path d="M96.996 107H90.0314M85 107C72.8497 107 63 97.3741 63 85.5C63 73.6259 72.8497 64 85 64C85.5167 64 86.0292 64.0174 86.537 64.0517C86.1842 62.0878 86 60.0654 86 58C86 39.2223 101.222 24 120 24C134.991 24 147.716 33.702 152.239 47.1695C153.31 47.0575 154.398 47 155.5 47C172.345 47 186 60.4315 186 77C186 92.7406 173.675 105.727 158 106.978V107H101.508H85Z" stroke="#1F64E7" stroke-width="2.5" stroke-linecap="round"/>
<path fill-rule="evenodd" clip-rule="evenodd" d="M109.612 31.3426C109.612 63.5657 138.633 90.118 176 93.7029C171.317 99.4611 164.086 103.367 155.847 103.981V104H88.7431C80.6013 104 67 100.57 67 85.5483C67 70.527 77.5742 67.0967 88.7431 67.0967C89.218 67.0967 89.6891 67.1116 90.1559 67.141C89.8316 65.4556 89.7746 63.7184 89.6623 61.9474C88.9038 49.9842 94.1229 34.907 109.63 30C109.618 30.4473 109.612 30.8944 109.612 31.3426ZM120.116 81.7579C117.078 81.7579 114.614 84.1921 114.614 87.1949C114.614 90.1976 117.078 92.6318 120.116 92.6318C123.155 92.6318 125.618 90.1976 125.618 87.1949C125.618 84.1921 123.155 81.7579 120.116 81.7579Z" fill="#E8F0FE"/>
<path d="M120.5 93C123.538 93 126 90.5376 126 87.5C126 84.4624 123.538 82 120.5 82C117.462 82 115 84.4624 115 87.5C115 90.5376 117.462 93 120.5 93Z" stroke="#1F64E7" stroke-width="2.5"/>
<path d="M105 75.9998L112 70.5066L105 65.2773" stroke="#1F64E7" stroke-width="2.5" stroke-linecap="round" stroke-linejoin="round"/>
<path d="M136 75.9998L129 70.5066L136 65.2773" stroke="#1F64E7" stroke-width="2.5" stroke-linecap="round" stroke-linejoin="round"/>
<path d="M130 34C136.509 35.7226 141.648 40.8129 143.44 47.2932" stroke="#75A4FE" stroke-width="2.5" stroke-linecap="round"/>
<path d="M151 17C152.657 17 154 15.6569 154 14C154 12.3431 152.657 11 151 11C149.343 11 148 12.3431 148 14C148 15.6569 149.343 17 151 17Z" stroke="#75A4FE" stroke-width="2"/>
<path d="M182 33C183.657 33 185 31.6569 185 30C185 28.3431 183.657 27 182 27C180.343 27 179 28.3431 179 30C179 31.6569 180.343 33 182 33Z" fill="#75A4FE"/>
<path d="M158.758 24.7578L167.116 33.116M167.243 24.7578L158.885 33.116" stroke="#75A4FE" stroke-width="2.5" stroke-linecap="round" stroke-linejoin="round"/>
<path d="M64.4043 42.5957L70.4043 48.5957M70.4043 42.5957L64.4043 48.5957" stroke="#75A4FE" stroke-width="2.5" stroke-linecap="round" stroke-linejoin="round"/>
<path d="M78 36C79.6569 36 81 34.6569 81 33C81 31.3431 79.6569 30 78 30C76.3431 30 75 31.3431 75 33C75 34.6569 76.3431 36 78 36Z" fill="#75A4FE"/>
</g>
</g>
<defs>
<clipPath id="clip0_1437_412">
<rect width="235" height="123" fill="white"/>
</clipPath>
</defs>
</svg>
