<svg width="36" height="36" viewBox="0 0 36 36" fill="none" xmlns="http://www.w3.org/2000/svg">
<g clip-path="url(#clip0_2_300)">
<path d="M18 36C27.9411 36 36 27.9411 36 18C36 8.05887 27.9411 0 18 0C8.05887 0 0 8.05887 0 18C0 27.9411 8.05887 36 18 36Z" fill="black"/>
<path d="M27.7835 17.7792H24.3352L25.2751 13.4298H28.5874C30.7361 13.4298 31.245 14.4863 31.245 15.3226C31.245 16.5055 30.48 17.7792 27.7835 17.7792ZM29.9615 21.5193C29.9615 22.7022 29.1966 23.9759 26.5001 23.9759H23.0518L23.9916 19.6234H27.3007C29.4495 19.6234 29.9615 20.6863 29.9615 21.5193ZM19.7556 13.8868H16.3105L17.2504 9.53735H20.5563C22.7082 9.53735 23.2203 10.5939 23.2203 11.4301C23.2203 12.613 22.4521 13.8868 19.7556 13.8868ZM22.0211 17.9769C22.0211 19.1598 21.2562 20.4335 18.5596 20.4335H15.1146L16.0528 16.0874H19.3635C21.5123 16.0874 22.0211 17.1407 22.0211 17.9769ZM20.741 24.7959C20.741 25.9821 19.976 27.2526 17.2859 27.2526H13.8327L14.7725 22.8999H18.0848C20.232 22.8999 20.741 23.9598 20.741 24.7959ZM10.5286 13.8868H7.08506L8.0201 9.53735H11.3324C13.4812 9.53735 13.9949 10.5939 13.9949 11.4301C13.9948 12.613 13.2251 13.8868 10.5286 13.8868ZM12.7989 17.9769C12.7989 19.1598 12.0291 20.4335 9.33914 20.4335H5.88586L6.82754 16.0874H10.1365C12.2868 16.0874 12.7989 17.1407 12.7989 17.9769Z" fill="white"/>
</g>
<defs>
<clipPath id="clip0_2_300">
<rect width="36" height="36" fill="white"/>
</clipPath>
</defs>
</svg>
