<svg width="42" height="42" viewBox="0 0 42 42" fill="none" xmlns="http://www.w3.org/2000/svg">
<path fill-rule="evenodd" clip-rule="evenodd" d="M33.9507 37.6814L33.1347 38.2643L31.386 39.3602L29.5906 40.2462L28.0751 40.8291L27.6787 40.969L26.373 41.342L25.7202 41.5053L23.715 41.8317L22.6891 41.9249L21.6865 41.9716H20.6839L19.658 41.9016L18.6554 41.785L18.3523 41.7151L16.6502 41.412L15.8575 41.1788L15.0181 40.9224L14.715 40.8291L12.8264 40.083L11.031 39.127L9.32896 38.0078L7.76679 36.7021L6.32119 35.2565L5.01549 33.6944L3.873 31.9923L2.91704 30.2203L2.14761 28.3084L1.61135 26.583L1.19166 24.5778L1.00513 22.5726L0.981812 21.5467L1.00513 20.5441L1.07508 19.5182L1.4015 17.513L1.86782 15.5312L2.5673 13.6192L3.43 11.8006L4.50254 10.0519L5.69166 8.41976L7.09062 6.92753L8.58285 5.5752L10.2383 4.38608L11.987 3.36017L13.1295 2.80059L15.0181 2.05447L15.8575 1.82131L16.9766 1.49489L18.3523 1.26173L18.9818 1.16846L19.9844 1.05188L20.7771 1.00525L21.0103 0.981934H22.0129L23.0155 1.02857L24.0414 1.12183L25.044 1.28504L26.373 1.58815L27.0259 1.72805L28.0751 2.07779L28.9611 2.35758L30.8264 3.19696L32.5751 4.22287L34.2305 5.41199L35.7927 6.741L37.1683 8.25655L38.4041 9.88867L39.4766 11.6374L40.3393 13.456L41.0388 15.3679L41.5284 17.3265L41.8316 19.355L41.9248 20.3809L41.9481 21.3835L41.8549 23.3887L41.7383 24.3913L41.5051 25.6503L40.9922 27.6322L40.2694 29.5208L39.3834 31.3394L38.3108 33.0648L37.0751 34.697L35.6761 36.1659L34.93 36.842L34.5336 37.1918L33.9507 37.6814ZM27.2357 4.52598L26.3963 4.2695L25.417 4.01302L24.4844 3.82649L22.8989 3.61665L21.0103 3.59333H20.7771L20.0543 3.61665L19.5647 3.66328L19.5181 3.98971L19.6113 4.47934L19.7979 4.82908L20.1476 5.27209L20.2642 5.73841L20.1709 6.34463L20.031 6.92753L19.8911 7.18401L19.6813 7.3239L19.5181 7.30059L19.3549 7.23064L19.215 6.99748L19.0518 6.69437L18.8419 6.46121L18.7253 6.41458L18.6321 6.50784L18.4455 6.57779L18.3756 6.64774L18.0958 6.8809L17.6295 7.53375L16.6968 9.11924L16.1139 9.95862L15.8808 10.3783L15.8341 10.4483L15.158 12.197L15.0181 12.5933L14.715 13.5027L14.0621 15.0882L13.5725 16.3472L13.2694 17.4198L12.8031 18.9819L12.36 20.1944L12.1036 21.3369L11.7072 22.7125L11.5207 23.0156L11.4274 23.4586V23.5519L10.9611 25.6503L10.3549 28.6115L9.98181 30.5001L9.9585 31.0597L10.0284 31.6426L10.0051 31.6659L9.98181 32.0389L10.0284 32.1555L10.1217 32.5286L10.0751 32.8084L9.79528 33.1581L9.53881 33.3679L9.42223 33.4146H9.2357L8.93259 33.3213L8.69943 32.9949L8.55953 32.4353V32.2721L8.6528 31.5493L8.62948 31.1063L8.48958 30.57L8.34969 29.8705L8.373 29.2876L8.13984 27.6322L7.95331 25.8135V25.5104L7.81342 24.9975L7.67352 24.4845L7.69684 24.2514L7.74347 24.1581L7.72015 24.1814L7.81342 23.9949V23.785L7.76679 23.5053L7.51031 22.1762L7.39373 20.684L7.27715 20.1944L7.18388 19.9379L7.09062 19.8446H6.95072L6.88077 19.8913L6.78751 20.0078L6.67093 20.2177L6.53103 20.4742L6.36782 20.8006L6.20461 21.1037L5.83155 22.1296L5.55176 22.5493L5.36523 23.0156L5.01549 23.8084L4.75901 24.1814L4.57248 24.3913L4.40927 24.4146L4.1528 24.3213L3.873 24.1115L3.75642 23.9249L3.73311 23.7617L3.77974 23.5752L4.0129 23.2021L4.17611 22.7125L4.38596 22.083L5.08544 20.9638L5.85487 19.355L6.43777 17.6762L7.2072 15.3679H7.23052L7.46368 15.3213L7.74347 15.3679L7.93 15.5312L8.09321 15.8343L8.13984 16.1607L8.09321 17.0933L8.23311 18.2825L8.30306 18.5622L8.5129 20.7773L8.62948 22.1296L8.69943 24.1115L8.81601 24.9275L9.02585 26.513L9.11912 27.0027L9.18906 27.2358L9.30565 27.3524L9.39891 27.3757H9.49217L9.53881 27.3058L9.56212 27.2358L9.58544 27.0959L9.60875 26.9094L9.63207 26.583L9.77197 26.2332L9.9585 25.8602L10.1917 25.4405L10.2849 24.8809L10.4714 24.0182L10.9378 22.7125L11.0777 22.4094L11.6606 20.4508L12.2901 18.4223L13.1994 15.9742L13.8989 14.2021L15.0181 11.4508L15.3212 10.728L15.8808 9.74877L16.417 8.81613L16.6968 7.79022L17.0233 7.04411L17.816 5.55188L18.3056 4.24618L18.3756 3.98971V3.91976L17.6295 4.08297L15.8808 4.52598L15.7875 4.54929L15.0414 4.82908L14.0155 5.22546L12.3134 6.06484L10.7279 7.11406L9.25901 8.30318L7.93 9.65551L6.71756 11.1477L5.85487 12.5001L4.94554 14.2021L4.22274 15.9742L3.70979 17.8394L3.38337 19.728L3.24347 21.64L3.33673 23.5752L3.63984 25.4405L4.12948 27.2825L4.80565 29.0312L5.69166 30.7332L6.71756 32.3187L7.30046 33.0415L9.16575 35.0001L9.88855 35.6063L10.2616 35.8861L11.1709 35.0467L12.1269 34.1141L13.6657 32.9949L15.0414 31.8757L15.8808 31.1529L15.9507 31.1063L17.0233 30.3369L17.816 29.7306L18.3756 29.2643L18.3989 29.241L18.8186 28.798L19.0051 28.5648L20.7771 27.1426L21.8963 26.2799L22.5958 25.627L23.0155 25.0441L23.1787 24.4146L23.2253 23.9949L23.0854 23.2488L23.0388 23.0622L22.8056 23.2021L22.5958 23.4353L22.0828 24.0648L21.5699 24.4146L21.3134 24.5312L20.987 24.5078L20.7771 24.4379L20.6606 24.3913L20.5207 24.298L20.474 23.8317L20.4507 22.5959L20.6373 21.1037L20.7771 20.4975L20.987 19.6348L21.2901 18.6089L21.7098 17.6762L22.4093 16.8602L22.759 16.627L22.9689 16.6503L23.202 16.8835L23.2953 17.1866L23.3652 17.6063L23.2253 18.0027L23.0388 18.2591L22.829 18.4457L22.6657 18.6322L22.5025 18.8187L22.3626 19.0519L22.1528 19.5182L21.873 20.4742L21.6865 21.4301L21.7331 21.8265L21.8264 21.9664L21.9196 22.013L22.0362 21.9431L22.1994 21.7799L22.7823 20.7073L23.5518 19.0053L23.7383 18.3757L23.9248 17.8394L24.088 17.513L24.2279 17.3731L24.3911 17.3032H24.5077L24.6476 17.3265L24.8341 17.4198L24.9041 17.5363L24.9507 17.6996L24.974 17.9327L24.7176 19.5182L24.7409 20.6374L24.7875 21.2436L24.6709 22.1762L24.3911 22.9223L24.2746 23.2721L24.2279 23.4586V23.5752L24.2746 23.6685L24.3678 23.7151H24.531L24.6942 23.6918L25.3704 23.2488L26.3963 22.5726L27.2357 22.013L28.0984 21.4534L29.2875 20.7073L31.5492 19.285L31.6891 19.2151L31.7823 19.0985L31.8523 18.9586L31.8756 18.842V18.7255L31.829 18.5856L31.759 18.5156L31.2461 17.8394L31.2927 17.8161L31.5725 17.0933L31.6658 16.3239L31.5958 15.7643L31.4559 15.3679L31.386 15.2747H31.2927L31.2227 15.298L31.0595 15.5078L30.8497 15.8109L30.6165 15.9975L30.36 16.2306L30.1968 16.6503L30.0803 17.2799L29.7771 17.9327L29.4274 18.3291L29.1942 18.7954V19.1218L29.1476 19.3317L29.0543 19.4716L28.9145 19.5882L28.7746 19.6581L28.5414 19.6348L28.2383 19.4483L28.0984 19.2151L28.0051 19.0985L27.9818 18.6555L28.0284 18.3291L28.0984 18.0726L28.1683 17.7928L28.3082 17.3498L28.4714 16.6503L28.8445 15.0882L29.0777 14.4819L29.1942 14.1322L29.2875 14.0389L29.4274 14.0156L29.5673 14.0622L29.6606 14.1555L29.7072 14.2488L29.7771 14.2721L29.8937 14.412L30.0336 14.5752L30.1735 14.5052L30.3834 14.2255L31.2927 13.1296L31.5958 12.7799L31.9222 12.6166L32.2487 12.6633L32.4818 12.8498L32.6217 13.0597V13.2695L32.5751 13.6192L32.6683 14.0156L32.7616 14.8783L32.6917 15.6711L32.5984 16.1607L32.6683 16.6503L32.9481 17.1166L33.3445 17.3964L33.9041 17.5597L34.3704 17.4897L36.0725 16.6736L37.0051 16.0674L37.4948 15.8576L37.9844 15.5778L38.2176 15.3913L38.3108 15.2747L38.0543 14.6218L37.215 12.8964L36.2124 11.2643L35.0466 9.74877L33.7409 8.37313L32.272 7.16069L30.6865 6.11147L29.0077 5.22546L28.0984 4.8524L27.2357 4.52598ZM27.0725 23.2721L26.373 23.9249L26.2797 24.0182L25.93 24.4379L25.1839 24.9275L24.6942 25.2773L24.158 25.8835L23.8082 26.6063L23.645 27.399L23.5751 28.355L23.4818 30.1736L23.645 31.9923L23.9714 33.741L24.2512 34.7203L24.5543 35.9094L24.6476 36.399L24.6942 36.8187L24.601 37.1918L24.4611 37.5182L24.3212 37.7747L24.1813 37.8913L24.0414 37.9379L23.7849 37.7281L23.3186 37.1918L23.0854 36.5389L23.0388 35.8394L23.0854 35.0933L22.9689 33.3913L22.7823 31.4094L22.6891 30.0804L22.6657 28.7514L22.7124 27.7488L22.759 27.4457L22.7823 27.3058V27.2125L22.759 27.0959L22.6657 27.0027L22.5025 26.956H22.1994L21.5699 27.469L20.7771 28.1685L20.474 28.4249L19.3549 29.3109L18.3523 30.0337L17.4663 30.6633L16.3937 31.8058L15.8575 32.2488L15.0181 33.0182L14.7616 33.2514L12.5932 35.1166L11.9404 36.0959L11.4041 36.7488L11.8005 37.0052L13.4093 37.9379L15.0181 38.6607L15.1113 38.7073L15.8575 38.9405L16.9766 39.2902L18.3523 39.5467L18.8885 39.64L20.7771 39.7799L20.8005 39.8032L22.6891 39.7332L24.601 39.4534L26.373 39.0337L26.4663 39.0104L28.0751 38.4275L28.2849 38.3576L30.0103 37.5415L31.6424 36.5389L33.158 35.3265L34.5103 34.0208L35.7461 32.5286L36.8419 30.9664L37.7512 29.241L38.4507 27.469L38.987 25.627L39.3367 23.7384L39.4533 21.8032L39.43 20.4975L39.2202 18.5856L39.0103 17.3731L38.474 17.4897L37.4481 17.7695L36.3989 18.0959L34.3937 18.8887L32.4818 19.8679L30.6398 21.0104L29.4974 21.8032L28.1217 22.6192L28.0751 22.6426L27.0725 23.2721ZM15.0181 26.5363L14.8316 26.6996L14.715 26.7928L14.6917 26.8161H14.3885L14.2953 26.6529L14.202 26.583L14.0388 26.4198L13.9922 26.1166L14.0388 25.4871L14.202 24.2047L14.5284 22.5493L14.7616 21.5467L15.0181 21.0571V21.0337L15.2046 20.8472L15.3678 20.754L15.4611 20.7306L15.601 20.684L15.7176 20.7306L15.8575 20.8006L15.8808 20.8239L15.974 20.8939L16.044 21.1503L16.0673 21.5467L15.8808 22.0363L15.5077 23.3187L15.3445 24.6244L15.4145 25.2773L15.4378 25.6037L15.3445 26.1166L15.0414 26.5363H15.0181ZM28.0751 11.0778H28.1217L28.2383 11.1011L28.3316 11.1477L28.5414 11.4975V11.8239L28.2616 12.4068L28.1683 12.4768H28.0984L28.0751 12.5001L27.9818 12.5234L27.772 12.3835L27.6787 12.2203L27.6088 11.8705L27.772 11.3343L27.8885 11.1477L27.9818 11.0778H28.0751ZM26.373 15.7876L26.4663 15.6711L26.5595 15.6244L26.6528 15.6011L26.8393 15.6711L27.0958 15.8343L27.2823 16.1141L27.329 16.4172L27.1891 16.8369L26.9093 17.6762L26.7927 18.6322L26.6994 19.1218L26.6295 19.3783L26.5129 19.6115L26.4896 19.8446L26.4663 20.1011L26.4196 20.3343L26.373 20.4275L26.3031 20.5674L26.1865 20.7073L26.0466 20.7773L25.9533 20.8239L25.86 20.8705L25.7668 20.8939L25.6735 20.9172H25.5803L25.487 20.8705L25.417 20.8006L25.4404 20.4742L25.5569 19.6115L25.7435 18.912L25.9766 18.1426L26.0699 17.2565L26.0466 16.6037L26.2098 16.0907L26.373 15.8109V15.7876ZM18.329 18.7954L18.3756 18.7021L18.6321 18.4457L18.772 18.3058L18.8652 18.2591L18.9818 18.2825L19.2383 18.3757L19.5181 18.7255L19.8212 19.2151L19.9145 19.5648L19.9611 19.8679L19.658 20.5907L19.2849 20.8239L19.145 20.8472L18.9818 20.8239H18.8419L18.7253 20.8006L18.6321 20.8472L18.5155 20.9871L18.4455 21.1736L18.329 22.013L18.1657 23.342L18.1191 23.785L17.886 24.1115L17.6062 24.2514L17.3963 24.2747L17.1165 24.1581L16.9533 23.9949L16.7202 23.4819L16.7435 23.1555L16.9999 21.3369L17.0233 20.8006L17.1632 20.2643L17.4896 19.8679L17.6994 19.728L18.0025 19.4483L18.1657 19.1685L18.329 18.7954ZM15.9507 16.7203L16.1373 16.7669L16.3005 16.8602L16.4404 17.0001L16.5336 17.1633L16.5803 17.3498L16.6036 17.5363L16.5569 17.7229L16.4637 17.9094L16.3471 18.0493L16.1839 18.1659L15.9974 18.2358H15.6709L15.4844 18.1659L15.3445 18.0493L15.2046 17.8861L15.1113 17.7229L15.088 17.5363V17.3498L15.1347 17.14L15.2512 16.9768L15.3911 16.8602L15.5543 16.7669L15.7409 16.7203H15.9507Z" fill="#B01E24"/>
</svg>
