<svg width="168" height="138" viewBox="0 0 168 138" fill="none" xmlns="http://www.w3.org/2000/svg">
<path d="M132.24 124.625H157.449M16.4682 124.625H40.5826H16.4682ZM2 124.625H9.72421H2ZM162.732 124.625H165.96H162.732Z" stroke="#336AEA" stroke-width="2.5" stroke-linecap="round" stroke-linejoin="round"/>
<path d="M54.6842 6.84058L67.1602 20.8503M113.244 6.84058L100.768 20.8503L113.244 6.84058ZM83.9082 2V20.8503V2Z" stroke="#336AEA" stroke-opacity="0.5" stroke-width="2.5" stroke-linecap="round" stroke-linejoin="round"/>
<path fill-rule="evenodd" clip-rule="evenodd" d="M49.1006 38H119.47L113.169 47.4611L121.571 53.7684H47L56.4527 47.4611L49.1006 38Z" fill="#336AEA" fill-opacity="0.09"/>
<path fill-rule="evenodd" clip-rule="evenodd" d="M49.722 97.6317V58.9759C49.722 57.3832 51.0262 56.0922 52.6348 56.0922L121.173 128.185C121.173 130.308 119.474 132.03 117.379 132.03H53.5155C51.4204 132.03 49.722 130.308 49.722 128.185V113.819V109.921V97.6317ZM49.722 105.978V101.648Z" fill="#336AEA" fill-opacity="0.08"/>
<path d="M45.6923 98.1459V55.8709C45.6923 54.1291 47.1203 52.7172 48.8819 52.7172H121.856C123.003 52.7172 123.933 53.6585 123.933 54.8196V131.559C123.933 133.882 122.073 135.764 119.779 135.764H49.8462C47.552 135.764 45.6923 133.882 45.6923 131.559V115.848V111.586M45.6923 107.273V102.539" stroke="#336AEA" stroke-width="2.5" stroke-linecap="round"/>
<path d="M47.7864 52.7172V40.1024C47.7864 38.9413 48.6304 38 49.6716 38L119.422 38C120.463 38 121.307 38.9413 121.307 40.1024V52.7172" stroke="#336AEA" stroke-width="2.5"/>
<path d="M67.2169 74.7931C69.2471 74.7931 70.8929 73.1458 70.8929 71.1137C70.8929 69.0817 69.2471 67.4344 67.2169 67.4344C65.1867 67.4344 63.5408 69.0817 63.5408 71.1137C63.5408 73.1458 65.1867 74.7931 67.2169 74.7931Z" stroke="#336AEA" stroke-width="2.5" stroke-linecap="round"/>
<path d="M101.877 74.7931C103.907 74.7931 105.553 73.1458 105.553 71.1137C105.553 69.0817 103.907 67.4344 101.877 67.4344C99.8464 67.4344 98.2006 69.0817 98.2006 71.1137C98.2006 73.1458 99.8464 74.7931 101.877 74.7931Z" stroke="#336AEA" stroke-width="2.5" stroke-linecap="round"/>
<path d="M101.351 74.793C101.351 84.0822 93.8277 91.6127 84.5467 91.6127C75.2657 91.6127 67.742 84.0822 67.742 74.793" stroke="#336AEA" stroke-width="2.5" stroke-linecap="round"/>
<path d="M48.9008 39.0479L56.2949 46.3532C56.7367 46.7897 56.7413 47.502 56.3052 47.9442C56.2297 48.0207 56.1437 48.086 56.0497 48.1381L47.7864 52.7172" stroke="#336AEA" stroke-width="2.5" stroke-linecap="round"/>
<path d="M120.371 39.1241L113.295 46.3472C112.861 46.7908 112.868 47.5031 113.311 47.9381C113.385 48.0107 113.469 48.0727 113.56 48.1224L121.975 52.7172" stroke="#336AEA" stroke-width="2.5" stroke-linecap="round"/>
</svg>
