<svg width="250" height="136" viewBox="0 0 250 136" fill="none" xmlns="http://www.w3.org/2000/svg">
<g clip-path="url(#clip0_1437_430)">
<mask id="mask0_1437_430" style="mask-type:luminance" maskUnits="userSpaceOnUse" x="0" y="0" width="250" height="136">
<path d="M250 0H0V136H250V0Z" fill="white"/>
</mask>
<g mask="url(#mask0_1437_430)">
<path d="M167 115H189.428M64 115H85.4541M51.1279 115H58M194.128 115H197" stroke="#1F64E7" stroke-width="2.5" stroke-linecap="round" stroke-linejoin="round"/>
<path d="M98 10.3027L109.1 22.7559M150.1 10.3027L139 22.7559M124 6V22.7559" stroke="#75A4FE" stroke-width="2.5" stroke-linecap="round" stroke-linejoin="round"/>
<path fill-rule="evenodd" clip-rule="evenodd" d="M92.7976 38H155.404L149.798 46.4098L157.273 52.0164H90.9287L99.3385 46.4098L92.7976 38Z" fill="#E8F0FE"/>
<path d="M158 50H91C89.8954 50 89 50.8954 89 52V123C89 124.105 89.8954 125 91 125H158C159.105 125 160 124.105 160 123V52C160 50.8954 159.105 50 158 50Z" fill="white"/>
<path fill-rule="evenodd" clip-rule="evenodd" d="M93.5851 91.0061V56.6453C93.5851 55.2297 94.7453 54.082 96.1765 54.082L157.153 118.164C157.153 120.052 155.642 121.582 153.778 121.582H96.96C95.0961 121.582 93.5851 120.052 93.5851 118.164V105.395V101.93V91.0061Z" fill="#E8F0FE"/>
<path d="M90 91.4631V53.8853C90 52.3371 91.2705 51.082 92.8377 51.082H157.761C158.782 51.082 159.609 51.9187 159.609 52.9509V121.164C159.609 123.228 157.954 124.902 155.913 124.902H93.6956C91.6546 124.902 90 123.228 90 121.164V107.199V103.41M90 99.5764V95.3678" stroke="#1F64E7" stroke-width="2.5" stroke-linecap="round"/>
<path d="M91.8636 51.0819V39.8688C91.8636 38.8367 92.6145 38 93.5408 38H155.596C156.523 38 157.273 38.8367 157.273 39.8688V51.0819" stroke="#1F64E7" stroke-width="2.5"/>
<path d="M109.15 70.705C110.957 70.705 112.421 69.2408 112.421 67.4346C112.421 65.6283 110.957 64.1641 109.15 64.1641C107.344 64.1641 105.88 65.6283 105.88 67.4346C105.88 69.2408 107.344 70.705 109.15 70.705Z" fill="#E8F0FE" stroke="#1F64E7" stroke-width="2.5" stroke-linecap="round"/>
<path d="M139.986 70.705C141.793 70.705 143.257 69.2408 143.257 67.4346C143.257 65.6283 141.793 64.1641 139.986 64.1641C138.18 64.1641 136.716 65.6283 136.716 67.4346C136.716 69.2408 138.18 70.705 139.986 70.705Z" fill="#E8F0FE" stroke="#1F64E7" stroke-width="2.5" stroke-linecap="round"/>
<path d="M139.519 70.7046C139.519 78.9617 132.825 85.6554 124.568 85.6554C116.311 85.6554 109.617 78.9617 109.617 70.7046" stroke="#1F64E7" stroke-width="2.5" stroke-linecap="round"/>
<path d="M92.8547 38.9316L99.4331 45.4253C99.8262 45.8133 99.8303 46.4464 99.4423 46.8395C99.3752 46.9075 99.2986 46.9656 99.215 47.0118L91.8633 51.0821" stroke="#1F64E7" stroke-width="2.5" stroke-linecap="round"/>
<path d="M156.44 38.999L150.145 45.4195C149.758 45.8138 149.764 46.447 150.159 46.8336C150.225 46.8982 150.299 46.9533 150.38 46.9975L157.867 51.0818" stroke="#1F64E7" stroke-width="2.5" stroke-linecap="round"/>
</g>
</g>
<defs>
<clipPath id="clip0_1437_430">
<rect width="250" height="136" fill="white"/>
</clipPath>
</defs>
</svg>
