<svg width="281" height="225" viewBox="0 0 281 225" fill="none" xmlns="http://www.w3.org/2000/svg">
<path d="M187.708 166.5H212.917M71.936 166.5H96.0504H71.936ZM57.4678 166.5H65.192H57.4678ZM218.2 166.5H221.428H218.2Z" stroke="#336AEA" stroke-width="2.5" stroke-linecap="round" stroke-linejoin="round"/>
<path d="M110.152 48.7156L122.628 62.7253M168.712 48.7156L156.236 62.7253L168.712 48.7156ZM139.376 43.875V62.7253V43.875Z" stroke="#A6C5FF" stroke-width="2.5" stroke-linecap="round" stroke-linejoin="round"/>
<path fill-rule="evenodd" clip-rule="evenodd" d="M104.304 79.875H174.674L168.372 89.3361L176.775 95.6434H102.204L111.657 89.3361L104.304 79.875Z" fill="#E8F0FE"/>
<rect x="100.036" y="93.375" width="79.804" height="84.375" rx="2" fill="white"/>
<path fill-rule="evenodd" clip-rule="evenodd" d="M105.19 139.507V100.851C105.19 99.2584 106.494 97.9673 108.103 97.9673L176.64 170.06C176.64 172.183 174.942 173.905 172.847 173.905H108.983C106.888 173.905 105.19 172.183 105.19 170.06V155.694V151.796V139.507ZM105.19 147.853V143.524V147.853Z" fill="#E8F0FE"/>
<path d="M101.16 140.021V97.746C101.16 96.0042 102.588 94.5923 104.35 94.5923H177.324C178.471 94.5923 179.401 95.5336 179.401 96.6947V173.435C179.401 175.757 177.541 177.639 175.247 177.639H105.314C103.02 177.639 101.16 175.757 101.16 173.435V157.724V153.461M101.16 149.148V144.414" stroke="#336AEA" stroke-width="2.5" stroke-linecap="round"/>
<path d="M103.254 94.5923V81.9775C103.254 80.8164 104.098 79.8751 105.139 79.8751L174.89 79.8751C175.931 79.8751 176.775 80.8164 176.775 81.9775V94.5923" stroke="#336AEA" stroke-width="2.5"/>
<path d="M122.685 116.668C124.715 116.668 126.361 115.021 126.361 112.989C126.361 110.957 124.715 109.31 122.685 109.31C120.654 109.31 119.009 110.957 119.009 112.989C119.009 115.021 120.654 116.668 122.685 116.668Z" fill="#E8F0FE" stroke="#336AEA" stroke-width="2.5" stroke-linecap="round"/>
<path d="M157.344 116.668C159.375 116.668 161.02 115.021 161.02 112.989C161.02 110.957 159.375 109.31 157.344 109.31C155.314 109.31 153.668 110.957 153.668 112.989C153.668 115.021 155.314 116.668 157.344 116.668Z" fill="#E8F0FE" stroke="#336AEA" stroke-width="2.5" stroke-linecap="round"/>
<path d="M156.819 116.668C156.819 125.957 149.295 133.488 140.014 133.488C130.734 133.488 123.21 125.957 123.21 116.668" stroke="#336AEA" stroke-width="2.5" stroke-linecap="round"/>
<path d="M104.369 80.9229L111.763 88.2282C112.204 88.6647 112.209 89.377 111.773 89.8192C111.698 89.8957 111.611 89.961 111.517 90.0131L103.254 94.5922" stroke="#336AEA" stroke-width="2.5" stroke-linecap="round"/>
<path d="M175.839 80.999L168.763 88.222C168.328 88.6657 168.335 89.378 168.779 89.813C168.853 89.8856 168.936 89.9476 169.027 89.9973L177.443 94.5921" stroke="#336AEA" stroke-width="2.5" stroke-linecap="round"/>
</svg>
