<svg width="250" height="136" viewBox="0 0 250 136" fill="none" xmlns="http://www.w3.org/2000/svg">
<g clip-path="url(#clip0_1427_717)">
<path fill-rule="evenodd" clip-rule="evenodd" d="M63 101H154C154.515 101 155.017 100.944 155.5 100.839C155.983 100.944 156.485 101 157 101H209C212.866 101 216 97.866 216 94C216 90.134 212.866 87 209 87H203C199.134 87 196 83.866 196 80C196 76.134 199.134 73 203 73H222C225.866 73 229 69.866 229 66C229 62.134 225.866 59 222 59H200C203.866 59 207 55.866 207 52C207 48.134 203.866 45 200 45H136C139.866 45 143 41.866 143 38C143 34.134 139.866 31 136 31H79C75.134 31 72 34.134 72 38C72 41.866 75.134 45 79 45H39C35.134 45 32 48.134 32 52C32 55.866 35.134 59 39 59H64C67.866 59 71 62.134 71 66C71 69.866 67.866 73 64 73H24C20.134 73 17 76.134 17 80C17 83.866 20.134 87 24 87H63C59.134 87 56 90.134 56 94C56 97.866 59.134 101 63 101ZM226 101C229.866 101 233 97.866 233 94C233 90.134 229.866 87 226 87C222.134 87 219 90.134 219 94C219 97.866 222.134 101 226 101Z" fill="#F3F7FF"/>
<path d="M167 115H189.428M64 115H85.4541H64ZM51.1279 115H58H51.1279ZM194.128 115H197H194.128Z" stroke="#1F64E7" stroke-width="2.5" stroke-linecap="round" stroke-linejoin="round"/>
<path d="M98 10.3027L109.1 22.7559M150.1 10.3027L139 22.7559L150.1 10.3027ZM124 6V22.7559V6Z" stroke="#75A4FE" stroke-width="2.5" stroke-linecap="round" stroke-linejoin="round"/>
<path fill-rule="evenodd" clip-rule="evenodd" d="M92.7976 38H155.404L149.798 46.4098L157.273 52.0164H90.9287L99.3385 46.4098L92.7976 38Z" fill="#E8F0FE"/>
<rect x="89" y="50" width="71" height="75" rx="2" fill="white"/>
<path fill-rule="evenodd" clip-rule="evenodd" d="M93.585 91.0061V56.6453C93.585 55.2297 94.7452 54.082 96.1764 54.082L157.153 118.164C157.153 120.052 155.642 121.582 153.778 121.582H96.9599C95.096 121.582 93.585 120.052 93.585 118.164V105.395V101.93V91.0061ZM93.585 98.4248V94.5765Z" fill="#E8F0FE"/>
<path d="M90 91.4631V53.8853C90 52.3371 91.2705 51.082 92.8377 51.082H157.761C158.782 51.082 159.609 51.9187 159.609 52.9509V121.164C159.609 123.228 157.954 124.902 155.913 124.902H93.6956C91.6546 124.902 90 123.228 90 121.164V107.199V103.41M90 99.5764V95.3678" stroke="#1F64E7" stroke-width="2.5" stroke-linecap="round"/>
<path d="M91.8636 51.082V39.8689C91.8636 38.8368 92.6145 38.0001 93.5408 38.0001L155.596 38.0001C156.523 38.0001 157.273 38.8368 157.273 39.8689V51.082" stroke="#1F64E7" stroke-width="2.5"/>
<path d="M109.15 70.705C110.957 70.705 112.421 69.2408 112.421 67.4346C112.421 65.6283 110.957 64.1641 109.15 64.1641C107.344 64.1641 105.88 65.6283 105.88 67.4346C105.88 69.2408 107.344 70.705 109.15 70.705Z" fill="#E8F0FE" stroke="#1F64E7" stroke-width="2.5" stroke-linecap="round"/>
<path d="M139.986 70.705C141.793 70.705 143.257 69.2408 143.257 67.4346C143.257 65.6283 141.793 64.1641 139.986 64.1641C138.18 64.1641 136.716 65.6283 136.716 67.4346C136.716 69.2408 138.18 70.705 139.986 70.705Z" fill="#E8F0FE" stroke="#1F64E7" stroke-width="2.5" stroke-linecap="round"/>
<path d="M139.519 70.7045C139.519 78.9616 132.825 85.6553 124.568 85.6553C116.311 85.6553 109.617 78.9616 109.617 70.7045" stroke="#1F64E7" stroke-width="2.5" stroke-linecap="round"/>
<path d="M92.8547 38.9316L99.4331 45.4253C99.8262 45.8133 99.8303 46.4464 99.4423 46.8395C99.3752 46.9075 99.2986 46.9656 99.215 47.0118L91.8633 51.0821" stroke="#1F64E7" stroke-width="2.5" stroke-linecap="round"/>
<path d="M156.44 38.999L150.145 45.4195C149.758 45.8138 149.764 46.447 150.159 46.8336C150.225 46.8982 150.299 46.9533 150.38 46.9975L157.867 51.0818" stroke="#1F64E7" stroke-width="2.5" stroke-linecap="round"/>
</g>
<defs>
<clipPath id="clip0_1427_717">
<rect width="250" height="136" fill="white"/>
</clipPath>
</defs>
</svg>
