<svg width="192" height="99" viewBox="0 0 192 99" fill="none" xmlns="http://www.w3.org/2000/svg">
<g clip-path="url(#clip0_1427_714)">
<path fill-rule="evenodd" clip-rule="evenodd" d="M173 8C176.866 8 180 11.134 180 15C180 18.866 176.866 22 173 22H133C136.866 22 140 25.134 140 29C140 32.866 136.866 36 133 36H155C158.866 36 162 39.134 162 43C162 46.866 158.866 50 155 50H144.826C139.952 50 136 53.134 136 57C136 59.5773 138 61.9107 142 64C145.866 64 149 67.134 149 71C149 74.866 145.866 78 142 78H59C55.134 78 52 74.866 52 71C52 67.134 55.134 64 59 64H20C16.134 64 13 60.866 13 57C13 53.134 16.134 50 20 50H60C63.866 50 67 46.866 67 43C67 39.134 63.866 36 60 36H35C31.134 36 28 32.866 28 29C28 25.134 31.134 22 35 22H75C71.134 22 68 18.866 68 15C68 11.134 71.134 8 75 8H173ZM173 36C176.866 36 180 39.134 180 43C180 46.866 176.866 50 173 50C169.134 50 166 46.866 166 43C166 39.134 169.134 36 173 36Z" fill="#F3F7FF"/>
<path d="M86.5 76C105.002 76 120 61.0015 120 42.5C120 23.9985 105.002 9 86.5 9C67.9985 9 53 23.9985 53 42.5C53 61.0015 67.9985 76 86.5 76Z" fill="#F3F7FF" stroke="#1F64E7" stroke-width="2.5"/>
<path fill-rule="evenodd" clip-rule="evenodd" d="M81.1321 68.4939C82.8908 68.8185 84.6801 68.9872 86.5 69C101.136 69 113 57.1355 113 42.5C113 27.8645 101.136 16 86.5 16C82.7404 16 79.1636 16.7829 75.9238 18.1946C70.2938 20.6479 65.6816 24.9999 62.896 30.4419C61.0445 34.0589 60 38.1575 60 42.5C60 46.44 60.8599 50.1792 62.4021 53.5401C63.5032 55.9396 64.9521 58.1463 66.6843 60.0956" fill="white"/>
<path d="M81.1321 68.4939C82.8908 68.8185 84.6801 68.9872 86.5 69C101.136 69 113 57.1355 113 42.5C113 27.8645 101.136 16 86.5 16C82.7404 16 79.1636 16.7829 75.9238 18.1946C70.2938 20.6479 65.6816 24.9999 62.896 30.4419C61.0445 34.0589 60 38.1575 60 42.5C60 46.44 60.8599 50.1792 62.4021 53.5401C63.5032 55.9396 64.9521 58.1463 66.6843 60.0956" stroke="#1F64E7" stroke-width="2.5" stroke-linecap="round"/>
<path d="M69.7979 63.0752C71.946 64.8212 74.3728 66.2375 77.0013 67.2471" stroke="#1F64E7" stroke-width="2.5" stroke-linecap="round"/>
<path d="M114 69L120 75" stroke="#1F64E7" stroke-width="2.5"/>
<path fill-rule="evenodd" clip-rule="evenodd" d="M119.03 74.0299C117.137 75.9226 117.137 78.9913 119.03 80.884L130.115 91.9693C132.008 93.862 135.077 93.862 136.969 91.9693C138.862 90.0766 138.862 87.0079 136.969 85.1152L125.884 74.0299C123.991 72.1372 120.923 72.1372 119.03 74.0299Z" fill="#E8F0FE" stroke="#1F64E7" stroke-width="2.5"/>
<path d="M124 76L135 87" stroke="white" stroke-width="2.5" stroke-linecap="round"/>
<path fill-rule="evenodd" clip-rule="evenodd" d="M80.0005 31.0005C80.0005 42.5985 89.4025 52.0005 101.001 52.0005C103.279 52.0005 105.472 51.6377 107.527 50.9667C104.174 59.2876 96.023 65.1612 86.5005 65.1612C73.9854 65.1612 63.8398 55.0157 63.8398 42.5005C63.8398 31.1601 72.1702 21.7653 83.0455 20.1016C81.1135 23.2798 80.0005 27.0102 80.0005 31.0005Z" fill="#E8F0FE"/>
<path d="M87 24C85.7266 24 84.4825 24.1253 83.2793 24.3642M79.6447 25.4761C72.8039 28.3508 68 35.1144 68 43" stroke="#75A4FE" stroke-width="2.5" stroke-linecap="round"/>
<path d="M140.176 42.7773H132M146.5 35H129.324H146.5ZM153.5 35H151.279H153.5Z" stroke="#75A4FE" stroke-width="2.5" stroke-linecap="round" stroke-linejoin="round"/>
<path d="M50.1763 64.7773H42.0005M45.5005 56H28.3247H45.5005ZM22.5005 56H18.2793H22.5005Z" stroke="#75A4FE" stroke-width="2.5" stroke-linecap="round" stroke-linejoin="round"/>
</g>
<defs>
<clipPath id="clip0_1427_714">
<rect width="192" height="99" fill="white"/>
</clipPath>
</defs>
</svg>
