<svg width="307" height="245" viewBox="0 0 307 245" fill="none" xmlns="http://www.w3.org/2000/svg">
<rect width="307" height="245" fill="white"/>
<path fill-rule="evenodd" clip-rule="evenodd" d="M254.196 79.625C258.943 79.625 262.792 83.4642 262.792 88.2C262.792 92.9358 258.943 96.775 254.196 96.775H205.076C209.823 96.775 213.672 100.614 213.672 105.35C213.672 110.086 209.823 113.925 205.076 113.925H232.092C236.839 113.925 240.688 117.764 240.688 122.5C240.688 127.236 236.839 131.075 232.092 131.075H219.598C213.613 131.075 208.76 134.914 208.76 139.65C208.76 142.807 211.216 145.666 216.128 148.225C220.875 148.225 224.724 152.064 224.724 156.8C224.724 161.536 220.875 165.375 216.128 165.375H114.204C109.457 165.375 105.608 161.536 105.608 156.8C105.608 152.064 109.457 148.225 114.204 148.225H66.312C61.5646 148.225 57.716 144.386 57.716 139.65C57.716 134.914 61.5646 131.075 66.312 131.075H115.432C120.179 131.075 124.028 127.236 124.028 122.5C124.028 117.764 120.179 113.925 115.432 113.925H84.732C79.9846 113.925 76.136 110.086 76.136 105.35C76.136 100.614 79.9846 96.775 84.732 96.775H133.852C129.105 96.775 125.256 92.9358 125.256 88.2C125.256 83.4642 129.105 79.625 133.852 79.625H254.196ZM254.196 113.925C258.943 113.925 262.792 117.764 262.792 122.5C262.792 127.236 258.943 131.075 254.196 131.075C249.449 131.075 245.6 127.236 245.6 122.5C245.6 117.764 249.449 113.925 254.196 113.925Z" fill="#F3F7FF"/>
<path d="M147.974 162.925C170.694 162.925 189.112 144.552 189.112 121.888C189.112 99.2232 170.694 80.8501 147.974 80.8501C125.254 80.8501 106.836 99.2232 106.836 121.888C106.836 144.552 125.254 162.925 147.974 162.925Z" fill="#F3F7FF" stroke="#336AEA" stroke-width="2.5"/>
<path fill-rule="evenodd" clip-rule="evenodd" d="M141.382 153.73C143.542 154.128 145.739 154.335 147.974 154.35C165.946 154.35 180.516 139.816 180.516 121.888C180.516 103.959 165.946 89.4253 147.974 89.4253C143.357 89.4253 138.965 90.3844 134.986 92.1137C128.073 95.1189 122.409 100.45 118.988 107.117C116.715 111.547 115.432 116.568 115.432 121.888C115.432 126.714 116.488 131.295 118.382 135.412C119.734 138.351 121.513 141.054 123.64 143.442" fill="white"/>
<path d="M141.382 153.73C143.542 154.128 145.739 154.335 147.974 154.35C165.946 154.35 180.516 139.816 180.516 121.888C180.516 103.959 165.946 89.4253 147.974 89.4253C143.357 89.4253 138.965 90.3844 134.986 92.1137C128.073 95.1189 122.409 100.45 118.988 107.117C116.715 111.547 115.432 116.568 115.432 121.888C115.432 126.714 116.488 131.295 118.382 135.412C119.734 138.351 121.513 141.054 123.64 143.442" stroke="#336AEA" stroke-width="2.5" stroke-linecap="round"/>
<path d="M127.463 147.092C130.101 149.231 133.081 150.966 136.309 152.202" stroke="#336AEA" stroke-width="2.5" stroke-linecap="round"/>
<path d="M181.744 154.35L189.112 161.7" stroke="#336AEA" stroke-width="2.5"/>
<path fill-rule="evenodd" clip-rule="evenodd" d="M187.921 160.512C185.597 162.831 185.597 166.59 187.921 168.909L201.534 182.488C203.858 184.807 207.627 184.807 209.951 182.488C212.275 180.17 212.275 176.41 209.951 174.092L196.338 160.512C194.014 158.194 190.245 158.194 187.921 160.512Z" fill="#E8F0FE" stroke="#336AEA" stroke-width="2.5"/>
<path d="M194.024 162.925L207.532 176.4" stroke="white" stroke-width="2.5" stroke-linecap="round"/>
<path fill-rule="evenodd" clip-rule="evenodd" d="M139.992 107.8C139.992 122.007 151.538 133.525 165.78 133.525C168.578 133.525 171.272 133.08 173.794 132.258C169.677 142.452 159.668 149.647 147.974 149.647C132.605 149.647 120.147 137.219 120.147 121.887C120.147 107.995 130.376 96.4868 143.731 94.4487C141.359 98.3421 139.992 102.912 139.992 107.8Z" fill="#E8F0FE"/>
<path d="M148.588 99.2251C147.024 99.2251 145.496 99.3786 144.019 99.6712M139.556 101.033C131.155 104.555 125.256 112.84 125.256 122.5" stroke="#A6C5FF" stroke-width="2.5" stroke-linecap="round"/>
<path d="M213.888 122.227H203.848M221.654 112.7H200.562H221.654ZM230.25 112.7H227.522H230.25Z" stroke="#A6C5FF" stroke-width="2.5" stroke-linecap="round" stroke-linejoin="round"/>
<path d="M103.368 149.177H93.328M97.626 138.425H76.5341H97.626ZM69.382 138.425H64.1984H69.382Z" stroke="#A6C5FF" stroke-width="2.5" stroke-linecap="round" stroke-linejoin="round"/>
</svg>
