<svg width="170" height="107" viewBox="0 0 170 107" fill="none" xmlns="http://www.w3.org/2000/svg">
<path d="M85.7756 84.075C108.495 84.075 126.914 65.7019 126.914 43.0375C126.914 20.3731 108.495 2 85.7756 2C63.0557 2 44.6376 20.3731 44.6376 43.0375C44.6376 65.7019 63.0557 84.075 85.7756 84.075Z" stroke="#336AEA" stroke-width="2.5"/>
<path d="M79.1837 74.88C81.3434 75.2776 83.5407 75.4843 85.7755 75.5C103.748 75.5 118.318 60.966 118.318 43.0375C118.318 25.1089 103.748 10.575 85.7755 10.575C81.1587 10.575 76.7664 11.534 72.788 13.2634C65.8744 16.2686 60.2105 21.5999 56.7898 28.2663C54.5162 32.6972 53.2335 37.7179 53.2335 43.0375C53.2335 47.864 54.2894 52.4444 56.1833 56.5616C57.5355 59.5009 59.3148 62.2041 61.4419 64.592" stroke="#336AEA" stroke-width="2.5" stroke-linecap="round"/>
<path d="M65.2648 68.2415C67.9027 70.3803 70.8828 72.1153 74.1106 73.352" stroke="#336AEA" stroke-width="2.5" stroke-linecap="round"/>
<path d="M119.546 75.5L126.914 82.85" stroke="#336AEA" stroke-width="2.5"/>
<path fill-rule="evenodd" clip-rule="evenodd" d="M125.723 81.662C123.399 83.9806 123.399 87.7398 125.723 90.0583L139.336 103.638C141.66 105.956 145.428 105.956 147.752 103.638C150.077 101.319 150.077 97.5601 147.752 95.2415L134.14 81.662C131.815 79.3435 128.047 79.3435 125.723 81.662Z" stroke="#336AEA" stroke-width="2.5"/>
<path d="M131.826 84.075L145.334 97.5499" stroke="#336AEA" stroke-opacity="0.08" stroke-width="2.5" stroke-linecap="round"/>
<path fill-rule="evenodd" clip-rule="evenodd" d="M77.7935 28.9501C77.7935 43.1576 89.3392 54.6751 103.582 54.6751C106.379 54.6751 109.073 54.2306 111.596 53.4086C107.478 63.6017 97.4692 70.7969 85.7755 70.7969C70.407 70.7969 57.9482 58.3687 57.9482 43.0376C57.9482 29.1455 68.1779 17.6369 81.5328 15.5989C79.1602 19.4922 77.7935 24.0619 77.7935 28.9501Z" fill="#336AEA" fill-opacity="0.08"/>
<path d="M86.3896 20.375C84.8259 20.375 83.2981 20.5285 81.8205 20.8211M77.3574 22.1832C68.9568 25.7048 63.0576 33.9902 63.0576 43.65" stroke="#336AEA" stroke-opacity="0.34" stroke-width="2.5" stroke-linecap="round"/>
<path d="M151.689 43.3773H141.65M159.456 33.8501H138.364H159.456ZM168.052 33.8501H165.324H168.052Z" stroke="#336AEA" stroke-opacity="0.34" stroke-width="2.5" stroke-linecap="round" stroke-linejoin="round"/>
<path d="M41.1695 70.3274H31.1296M35.4276 59.5752H14.3358H35.4276ZM7.18362 59.5752H2H7.18362Z" stroke="#336AEA" stroke-opacity="0.34" stroke-width="2.5" stroke-linecap="round" stroke-linejoin="round"/>
</svg>
