<svg width="228" height="141" viewBox="0 0 228 141" fill="none" xmlns="http://www.w3.org/2000/svg">
<g clip-path="url(#clip0_1427_716)">
<path fill-rule="evenodd" clip-rule="evenodd" d="M52 101H143C143.515 101 144.017 100.944 144.5 100.839C144.983 100.944 145.485 101 146 101H198C201.866 101 205 97.866 205 94C205 90.134 201.866 87 198 87H192C188.134 87 185 83.866 185 80C185 76.134 188.134 73 192 73H211C214.866 73 218 69.866 218 66C218 62.134 214.866 59 211 59H189C192.866 59 196 55.866 196 52C196 48.134 192.866 45 189 45H125C128.866 45 132 41.866 132 38C132 34.134 128.866 31 125 31H68C64.134 31 61 34.134 61 38C61 41.866 64.134 45 68 45H28C24.134 45 21 48.134 21 52C21 55.866 24.134 59 28 59H53C56.866 59 60 62.134 60 66C60 69.866 56.866 73 53 73H13C9.13401 73 6 76.134 6 80C6 83.866 9.13401 87 13 87H52C48.134 87 45 90.134 45 94C45 97.866 48.134 101 52 101ZM215 101C218.866 101 222 97.866 222 94C222 90.134 218.866 87 215 87C211.134 87 208 90.134 208 94C208 97.866 211.134 101 215 101Z" fill="#F3F7FF"/>
<path d="M161.5 12V18" stroke="#75A4FE" stroke-width="2.5" stroke-linecap="round" stroke-linejoin="round"/>
<path d="M161.5 26V32" stroke="#75A4FE" stroke-width="2.5" stroke-linecap="round" stroke-linejoin="round"/>
<path d="M151.5 22H157.5" stroke="#75A4FE" stroke-width="2.5" stroke-linecap="round" stroke-linejoin="round"/>
<path d="M165.5 22H171.5" stroke="#75A4FE" stroke-width="2.5" stroke-linecap="round" stroke-linejoin="round"/>
<path d="M78.5 115V119" stroke="#75A4FE" stroke-width="2.5" stroke-linecap="round" stroke-linejoin="round"/>
<path d="M78.5 127V131" stroke="#75A4FE" stroke-width="2.5" stroke-linecap="round" stroke-linejoin="round"/>
<path d="M70.5 123H74.5" stroke="#75A4FE" stroke-width="2.5" stroke-linecap="round" stroke-linejoin="round"/>
<path d="M82.5 123H86.5" stroke="#75A4FE" stroke-width="2.5" stroke-linecap="round" stroke-linejoin="round"/>
<path fill-rule="evenodd" clip-rule="evenodd" d="M149.711 98.1263C151.102 96.4232 152.352 94.6421 153.461 92.7987C155.901 88.7443 157.66 84.3884 158.734 79.8975C159.821 75.3555 160.209 70.6755 159.894 66.0296C159.62 61.9756 158.811 57.9475 157.465 54.0598C156.131 50.2028 154.268 46.484 151.875 43.015C150.45 40.9479 148.836 38.9696 147.034 37.1036C144.388 34.364 141.486 32.0219 138.402 30.0787C135.089 27.9908 131.566 26.3634 127.926 25.1984C123.368 23.7393 118.628 23.0054 113.886 23C110.197 22.9959 106.507 23.4328 102.902 24.3125C98.8447 25.3028 94.8953 26.8543 91.1766 28.9692C87.9076 30.8284 84.817 33.123 81.988 35.8547C78.4328 39.2875 75.553 43.1572 73.3512 47.2985C71.1956 51.3531 69.6899 55.6682 68.8366 60.0887C67.9574 64.6429 67.7706 69.3091 68.2789 73.9178C68.9378 79.8911 70.7643 85.7677 73.7644 91.1785C75.684 94.6407 78.0842 97.9123 80.9663 100.896C85.5416 105.634 90.8833 109.183 96.6045 111.535C103.562 114.397 111.081 115.489 118.465 114.8C124.662 114.221 130.765 112.387 136.361 109.29" fill="white"/>
<path d="M149.711 98.1263C151.102 96.4232 152.352 94.6421 153.461 92.7987C155.901 88.7443 157.66 84.3884 158.734 79.8975C159.821 75.3555 160.209 70.6755 159.894 66.0296C159.62 61.9756 158.811 57.9475 157.465 54.0598C156.131 50.2028 154.268 46.484 151.875 43.015C150.45 40.9479 148.836 38.9696 147.034 37.1036C144.388 34.364 141.486 32.0219 138.402 30.0787C135.089 27.9908 131.566 26.3634 127.926 25.1984C123.368 23.7393 118.628 23.0054 113.886 23C110.197 22.9959 106.507 23.4328 102.902 24.3125C98.8447 25.3028 94.8953 26.8543 91.1766 28.9692C87.9076 30.8284 84.817 33.123 81.988 35.8547C78.4328 39.2875 75.553 43.1572 73.3512 47.2985C71.1956 51.3531 69.6899 55.6682 68.8366 60.0887C67.9574 64.6429 67.7706 69.3091 68.2789 73.9178C68.9378 79.8911 70.7643 85.7677 73.7644 91.1785C75.684 94.6407 78.0842 97.9123 80.9663 100.896C85.5416 105.634 90.8833 109.183 96.6045 111.535C103.562 114.397 111.081 115.489 118.465 114.8C124.662 114.221 130.765 112.387 136.361 109.29" stroke="#1F64E7" stroke-width="2.5" stroke-linecap="round" stroke-linejoin="round"/>
<path fill-rule="evenodd" clip-rule="evenodd" d="M139.701 107.378C142.607 105.508 145.191 103.174 146.872 101.291Z" fill="white"/>
<path d="M139.701 107.378C142.607 105.508 145.191 103.174 146.872 101.291" stroke="#1F64E7" stroke-width="2.5" stroke-linecap="round"/>
<path d="M156 71.617C155.714 71.6221 155.427 71.6246 155.14 71.6246C129.886 71.6246 109.209 51.9362 107.476 27C87.3752 30.1706 72 47.6526 72 68.7434C72 92.0811 90.8255 111 114.048 111C136.309 111 154.53 93.6145 156 71.617Z" fill="#E8F0FE"/>
<path fill-rule="evenodd" clip-rule="evenodd" d="M98.0233 67.3729C96.8001 66.2433 94.9025 66.33 93.785 67.5666C92.6676 68.8032 92.7534 70.7214 93.9767 71.8511L108.096 84.889C109.808 86.4704 112.465 86.349 114.029 84.6178C114.095 84.5442 114.095 84.5442 114.158 84.4687L134.307 59.9716C135.366 58.6837 135.192 56.7716 133.918 55.7008C132.644 54.63 130.752 54.806 129.693 56.0939L110.75 79.125L98.0233 67.3729Z" fill="white" stroke="#1F64E7" stroke-width="2.5" stroke-linecap="round"/>
<path fill-rule="evenodd" clip-rule="evenodd" d="M99.8239 31.4131C97.8737 32.1447 95.9688 33.0338 94.1284 34.0806C91.2686 35.7072 88.5648 37.7149 86.0899 40.1049C85.0754 41.0846 84.1237 42.105 83.235 43.161M80.4851 46.8378C79.7785 47.9057 79.1281 49.0004 78.5342 50.1176C78.0956 50.9428 77.6877 51.7803 77.3106 52.6285" fill="white"/>
<path d="M100.263 32.5834C100.909 32.341 101.237 31.6204 100.994 30.974C100.752 30.3277 100.031 30.0003 99.3848 30.2428L100.263 32.5834ZM94.1284 34.0806L94.7464 35.1671L94.1284 34.0806ZM86.0899 40.1049L85.2216 39.2057L86.0899 40.1049ZM82.2786 42.3562C81.8341 42.8844 81.902 43.6729 82.4302 44.1174C82.9584 44.5619 83.7469 44.4941 84.1914 43.9659L82.2786 42.3562ZM81.5275 47.5277C81.9085 46.9519 81.7507 46.1764 81.1749 45.7954C80.5992 45.4144 79.8237 45.5723 79.4427 46.148L81.5275 47.5277ZM78.5342 50.1176L79.638 50.7044L79.638 50.7044L78.5342 50.1176ZM76.1684 52.1206C75.8879 52.7515 76.1719 53.4902 76.8027 53.7707C77.4335 54.0511 78.1723 53.7671 78.4528 53.1363L76.1684 52.1206ZM99.3848 30.2428C97.3735 30.9973 95.4086 31.9143 93.5104 32.994L94.7464 35.1671C96.5289 34.1532 98.374 33.2921 100.263 32.5834L99.3848 30.2428ZM93.5104 32.994C90.5604 34.672 87.7724 36.7424 85.2216 39.2057L86.9582 41.0041C89.3573 38.6874 91.9768 36.7425 94.7464 35.1671L93.5104 32.994ZM85.2216 39.2057C84.176 40.2154 83.195 41.2673 82.2786 42.3562L84.1914 43.9659C85.0525 42.9427 85.9747 41.9538 86.9582 41.0041L85.2216 39.2057ZM79.4427 46.148C78.7138 47.2494 78.0431 48.3785 77.4305 49.5309L79.638 50.7044C80.2132 49.6222 80.8431 48.562 81.5275 47.5277L79.4427 46.148ZM77.4305 49.5309C76.978 50.382 76.5573 51.2459 76.1684 52.1206L78.4528 53.1363C78.818 52.3148 79.2131 51.5036 79.638 50.7044L77.4305 49.5309Z" fill="#75A4FE"/>
</g>
<defs>
<clipPath id="clip0_1427_716">
<rect width="228" height="141" fill="white"/>
</clipPath>
</defs>
</svg>
