<svg version="1.2" xmlns="http://www.w3.org/2000/svg" viewBox="0 0 138 108" width="138" height="108" id="noFound">
	<title>EmptyState-svg</title>
	<style>
		.s0 { fill: #ffffff } 
		.s1 { fill: none;stroke: #336aea;stroke-linecap: round;stroke-width: 2.5 } 
		.s2 { fill: #e8f0fe } 
		.s3 { fill: none;stroke: #336aea;stroke-width: 2.5 } 
		.s4 { fill: none;stroke: #336aea;stroke-linecap: round;stroke-linejoin: round;stroke-width: 2.5 } 
		.s5 { fill: none;stroke: #a6c5ff;stroke-linecap: round;stroke-width: 2.5 } 
		.s6 { fill: none;stroke: #a6c5ff;stroke-width: 2 } 
		.s7 { fill: #a6c5ff } 
		.s8 { fill: none;stroke: #a6c5ff;stroke-linecap: round;stroke-linejoin: round;stroke-width: 2.5 } 
	</style>
	<path fill-rule="evenodd" class="s0" d="m25.8 106.3c-13.3 0-24.1-10.5-24.1-23.5 0-13 10.8-23.6 24.1-23.6q0.9 0 1.7 0.1-0.6-3.3-0.6-6.7c0-20.5 16.7-37.2 37.3-37.2 16.4 0 30.4 10.6 35.3 25.4q1.8-0.2 3.6-0.2c18.5 0 33.4 14.7 33.4 32.9 0 17.2-13.5 31.4-30.7 32.8h-61.9zm13.2 0h-7.7z"/>
	<path fill-rule="evenodd" class="s1" d="m25.8 106.3c-13.3 0-24.1-10.5-24.1-23.5 0-13 10.8-23.6 24.1-23.6q0.9 0 1.7 0.1-0.6-3.3-0.6-6.7c0-20.5 16.7-37.2 37.3-37.2 16.4 0 30.4 10.6 35.3 25.4q1.8-0.2 3.6-0.2c18.5 0 33.4 14.7 33.4 32.9 0 17.2-13.5 31.4-30.7 32.8h-61.9zm13.2 0h-7.7"/>
	<path fill-rule="evenodd" class="s2" d="m52.8 23.5c0 35.2 31.8 64.3 72.8 68.2-5.2 6.3-13.1 10.6-22.1 11.3h-73.6c-8.9 0-23.8-3.7-23.8-20.2 0-16.4 11.6-20.2 23.8-20.2q0.8 0 1.6 0.1c-0.4-1.9-0.4-3.8-0.6-5.7-0.8-13.1 4.9-29.6 21.9-35q0 0.7 0 1.5zm11.5 55.2c-3.3 0-6 2.6-6 5.9 0 3.3 2.7 6 6 6 3.4 0 6-2.7 6-6 0-3.3-2.6-5.9-6-5.9z"/>
	<path fill-rule="evenodd" class="s3" d="m64.7 91c3.4 0 6.1-2.7 6.1-6.1 0-3.3-2.7-6-6.1-6-3.3 0-6 2.7-6 6 0 3.4 2.7 6.1 6 6.1z"/>
	<path fill-rule="evenodd" class="s4" d="m47.8 72.4l7.6-6.1-7.6-5.7"/>
	<path fill-rule="evenodd" class="s4" d="m81.7 72.4l-7.6-6.1 7.6-5.7"/>
	<path fill-rule="evenodd" class="s5" d="m75.2 26.4c7.1 1.9 12.7 7.4 14.7 14.5"/>
	<path fill-rule="evenodd" class="s6" d="m98.2 7.8c1.8 0 3.3-1.5 3.3-3.3 0-1.8-1.5-3.3-3.3-3.3-1.8 0-3.3 1.5-3.3 3.3 0 1.8 1.5 3.3 3.3 3.3z"/>
	<path class="s7" d="m132.1 25.3c1.9 0 3.3-1.5 3.3-3.3 0-1.8-1.4-3.3-3.3-3.3-1.8 0-3.2 1.5-3.2 3.3 0 1.8 1.4 3.3 3.2 3.3z"/>
	<path fill-rule="evenodd" class="s8" d="m106.7 16.2l9.1 9.2m0.2-9.2l-9.2 9.2z"/>
	<path fill-rule="evenodd" class="s8" d="m9.8 35.8l-6.5 6.5zm-6.6 0l6.6 6.6"/>
	<path class="s7" d="m18.2 28.6c1.8 0 3.2-1.5 3.2-3.3 0-1.8-1.4-3.3-3.2-3.3-1.9 0-3.3 1.5-3.3 3.3 0 1.8 1.4 3.3 3.3 3.3z"/>
</svg>