<svg width="274" height="219" viewBox="0 0 274 219" fill="none" xmlns="http://www.w3.org/2000/svg">
<path fill-rule="evenodd" clip-rule="evenodd" d="M100.832 153.3C87.5153 153.3 76.72 142.76 76.72 129.758C76.72 116.755 87.5153 106.215 100.832 106.215C101.398 106.215 101.96 106.234 102.516 106.272C102.13 104.121 101.928 101.907 101.928 99.645C101.928 79.0835 118.612 62.415 139.192 62.415C155.622 62.415 169.569 73.0387 174.525 87.7856C175.7 87.663 176.892 87.6 178.1 87.6C196.562 87.6 211.528 102.307 211.528 120.45C211.528 137.686 198.02 151.906 180.84 153.276V153.3H118.925H100.832ZM113.98 153.3H106.346H113.98Z" fill="white"/>
<path d="M113.98 153.3H106.346M100.832 153.3C87.5153 153.3 76.72 142.76 76.72 129.758C76.72 116.755 87.5153 106.215 100.832 106.215C101.398 106.215 101.96 106.234 102.516 106.272C102.13 104.121 101.928 101.907 101.928 99.645C101.928 79.0835 118.612 62.415 139.192 62.415C155.622 62.415 169.569 73.0387 174.525 87.7856C175.7 87.663 176.892 87.6 178.1 87.6C196.562 87.6 211.528 102.307 211.528 120.45C211.528 137.686 198.02 151.906 180.84 153.276V153.3H118.925H100.832Z" stroke="#336AEA" stroke-width="2.5" stroke-linecap="round"/>
<path fill-rule="evenodd" clip-rule="evenodd" d="M127.807 70.455C127.807 105.739 159.614 134.814 200.568 138.74C195.436 145.045 187.51 149.322 178.48 149.994V150.015H104.934C96.0111 150.015 81.104 146.259 81.104 129.81C81.104 113.362 92.6933 109.606 104.934 109.606C105.455 109.606 105.971 109.622 106.483 109.654C106.127 107.809 106.065 105.907 105.942 103.967C105.111 90.8675 110.831 74.358 127.827 68.9849C127.813 69.4747 127.807 69.9643 127.807 70.455ZM139.319 125.66C135.989 125.66 133.289 128.325 133.289 131.613C133.289 134.901 135.989 137.567 139.319 137.567C142.65 137.567 145.35 134.901 145.35 131.613C145.35 128.325 142.65 125.66 139.319 125.66Z" fill="#E8F0FE"/>
<path d="M139.74 137.97C143.069 137.97 145.768 135.273 145.768 131.947C145.768 128.621 143.069 125.925 139.74 125.925C136.411 125.925 133.712 128.621 133.712 131.947C133.712 135.273 136.411 137.97 139.74 137.97Z" stroke="#336AEA" stroke-width="2.5"/>
<path d="M122.752 119.355L130.424 113.34L122.752 107.614" stroke="#336AEA" stroke-width="2.5" stroke-linecap="round" stroke-linejoin="round"/>
<path d="M156.728 119.355L149.056 113.34L156.728 107.614" stroke="#336AEA" stroke-width="2.5" stroke-linecap="round" stroke-linejoin="round"/>
<path d="M150.152 73.3652C157.286 75.2515 162.918 80.8253 164.882 87.9213" stroke="#A6C5FF" stroke-width="2.5" stroke-linecap="round"/>
<path d="M173.168 54.7502C174.984 54.7502 176.456 53.2794 176.456 51.4652C176.456 49.6509 174.984 48.1802 173.168 48.1802C171.352 48.1802 169.88 49.6509 169.88 51.4652C169.88 53.2794 171.352 54.7502 173.168 54.7502Z" stroke="#A6C5FF" stroke-width="2"/>
<path d="M207.144 72.2702C208.96 72.2702 210.432 70.7995 210.432 68.9852C210.432 67.1709 208.96 65.7002 207.144 65.7002C205.328 65.7002 203.856 67.1709 203.856 68.9852C203.856 70.7995 205.328 72.2702 207.144 72.2702Z" fill="#A6C5FF"/>
<path d="M181.67 63.2441L190.831 72.3964M190.97 63.2441L181.809 72.3964L190.97 63.2441Z" stroke="#A6C5FF" stroke-width="2.5" stroke-linecap="round" stroke-linejoin="round"/>
<path d="M78.2585 82.7778L84.8345 89.3478M84.8345 82.7778L78.2585 89.3478L84.8345 82.7778Z" stroke="#A6C5FF" stroke-width="2.5" stroke-linecap="round" stroke-linejoin="round"/>
<path d="M93.1599 75.5549C94.9759 75.5549 96.4479 74.0841 96.4479 72.2699C96.4479 70.4556 94.9759 68.9849 93.1599 68.9849C91.344 68.9849 89.8719 70.4556 89.8719 72.2699C89.8719 74.0841 91.344 75.5549 93.1599 75.5549Z" fill="#A6C5FF"/>
</svg>
