<svg width="24" height="30" viewBox="0 0 24 30" fill="none" xmlns="http://www.w3.org/2000/svg">
<path d="M13.2421 2.61154C15.1764 0.0136418 17.8655 0.000976562 17.8655 0.000976562C17.8655 0.000976562 18.2655 2.44345 16.3439 4.79632C14.2921 7.30868 11.9599 6.89757 11.9599 6.89757C11.9599 6.89757 11.522 4.9217 13.2421 2.61154ZM12.2059 8.60851C13.201 8.60851 15.0479 7.21465 17.4518 7.21465C21.5898 7.21465 23.2176 10.215 23.2176 10.215C23.2176 10.215 20.0338 11.8738 20.0338 15.8987C20.0338 20.4391 24 22.0039 24 22.0039C24 22.0039 21.2275 29.9557 17.4826 29.9557C15.7626 29.9557 14.4254 28.7746 12.6131 28.7746C10.7663 28.7746 8.93352 29.9998 7.73984 29.9998C4.3202 29.9999 0 22.4567 0 16.3933C0 10.4277 3.65677 7.29823 7.08666 7.29823C9.3164 7.29823 11.0467 8.60851 12.2059 8.60851Z" fill="#999999"/>
</svg>
