<svg width="48" height="16" viewBox="0 0 48 16" fill="none" xmlns="http://www.w3.org/2000/svg">
<path d="M44.0082 13.5228C41.4674 13.5403 39.0627 13.5605 38.3923 13.5002C37.0356 13.3821 36.1289 12.4909 36.0241 11.1793C35.9522 10.3191 35.9522 9.60613 36.0196 8.9276C36.1431 7.65107 37.2072 6.43428 38.3927 6.37698C38.8172 6.35374 39.9539 6.35639 42.011 6.36455L48 6.37698V3.88285C48 3.88285 43.2299 3.87734 41.7958 3.87082C39.8705 3.86205 38.9016 3.86083 38.2883 3.88285C36.9387 3.93422 35.8074 4.41682 34.9277 5.31372C34.0953 6.16005 33.5986 7.50713 33.5249 8.87092C33.4833 9.60613 33.4691 10.5677 33.5249 11.1392C33.6634 12.6051 34.1358 13.756 34.9277 14.5622C35.7749 15.4279 37.0642 15.9759 38.2896 15.9935C39.295 16.0061 48 15.9935 48 15.9935V13.5C48 13.5 45.3554 13.5108 44.0082 13.5228ZM16.9735 4.01537V6.50706H22.8818V15.9492H25.3761V6.50706H31.2857V4.01537H16.9735ZM14.3831 8.72779C14.3648 7.38622 13.8941 6.23447 12.9795 5.30393C12.0265 4.33038 10.571 3.92546 9.61925 3.87449C8.79154 3.8278 5.52921 3.84248 4.76302 3.87449C3.68411 3.92056 2.89741 4.24352 2.50366 4.53875C2.4996 4.5414 2.49553 4.54017 2.49553 4.53406V0.00146484H0V15.9939H2.49127C2.49127 15.9939 2.44274 9.44771 2.49817 8.73513C2.59727 7.46757 3.55495 6.4724 4.775 6.36496C5.75441 6.28075 8.69244 6.30379 9.61357 6.36699C10.8795 6.45446 11.8136 7.44779 11.8873 8.78508C11.9115 9.27747 11.8859 15.9937 11.8859 15.9937H14.3829C14.3831 15.9935 14.3896 9.30357 14.3831 8.72779Z" fill="#69B40F"/>
</svg>
