<svg width="24" height="40" viewBox="0 0 24 40" fill="none" xmlns="http://www.w3.org/2000/svg">
<g clip-path="url(#clip0_2_324)">
<path d="M2.99756 28.8916H6.03828V37.018H10.5554V39.7304H2.99756V28.8916ZM18.4289 38.6504C17.8899 39.512 16.895 39.9999 15.6529 39.9999C12.9799 39.9999 11.2379 37.7561 11.2379 34.2921C11.2379 30.7777 13.196 28.6121 16.4405 28.6121C17.7337 28.6121 18.8388 28.9772 19.6933 29.6642C20.555 30.3838 20.8748 31.091 21.0135 32.5203H17.8341C17.7472 31.6839 17.1533 31.1489 16.372 31.1489C15.1424 31.1489 14.4235 32.3456 14.4235 34.3358C14.4235 36.3547 15.1705 37.5665 16.4261 37.5665C17.4147 37.5665 17.9871 36.9879 18.2222 35.6921H16.2603V33.4106H21.0135V39.7305H18.4289V38.6504Z" fill="#787F87"/>
<path d="M11.9921 25.2817C18.6249 25.2817 23.9984 19.6259 23.9984 12.6409C23.9984 5.65582 18.6249 0 11.9921 0C5.37414 0 0.00158691 5.65581 0.00158691 12.6408C0.00158691 19.6259 5.37414 25.2817 11.9921 25.2817Z" fill="#922C60"/>
<path d="M11.5217 7.09354V18.1749H14.8669V17.1848H12.48V7.09354H11.5217ZM8.16695 10.1167C8.96097 10.1167 9.60836 9.43894 9.60836 8.60594C9.60836 7.76536 8.96105 7.08765 8.16695 7.08765C7.37701 7.08765 6.72961 7.76536 6.72961 8.60594C6.72961 9.43894 7.37692 10.1167 8.16695 10.1167Z" fill="white"/>
<path d="M12.4799 2.06166C12.3549 2.05661 12.1132 2.05493 11.9921 2.05493C6.46087 2.05493 1.95654 6.80043 1.95654 12.6375C1.95654 15.4658 3.00254 18.1211 4.89839 20.1214C6.79273 22.1217 9.31743 23.2194 11.9923 23.2194C14.6836 23.2194 17.2078 22.1219 19.1035 20.1214C20.9986 18.1211 22.0446 15.465 22.0446 12.6375V12.1572L21.65 12.1588H14.8735V13.138H21.0894C21.0886 13.1607 21.0871 13.264 21.0855 13.2849C20.7665 18.273 16.8156 22.2342 11.9963 22.2342C9.56941 22.2342 7.28294 21.2324 5.55777 19.4177C3.84032 17.6131 2.8924 15.1989 2.8924 12.6368C2.8924 10.0738 3.84032 7.66035 5.55759 5.85486C7.28285 4.046 9.56923 3.04593 11.9961 3.04593C12.102 3.04593 12.3652 3.04677 12.48 3.0493V2.06166" fill="white"/>
</g>
<defs>
<clipPath id="clip0_2_324">
<rect width="24" height="40" fill="white"/>
</clipPath>
</defs>
</svg>
